# xmcd
#
# Track frame offsets:
# 150
# 17097
# 43457
# 60985
# 73515
# 92960
# 110945
# 117729
# 140680
# 156692
# 179855
#
# Disc length: 2645 seconds
#
# Revision: 0
# Processed by: cddbd v1.4PL0 Copyright (c) Steve Scherf et al.
# Submitted via: Audion 3.0.2 (http://www.panic.com/audion/)
#
DISCID=b60a530b
DTITLE=The Kind of Bitter - Regrets
DYEAR=1900
DGENRE=
TTITLE0=Dead Fight
TTITLE1=Teardrops
TTITLE2=Without a Name
TTITLE3=When the Light Is out
TTITLE4=I Doubt I Have a Heart
TTITLE5=All It Takes
TTITLE6=Regrets
TTITLE7=This Time of Year
TTITLE8=Fortress
TTITLE9=Remind Me
TTITLE10=See You in September
EXTD=
EXTT0=
EXTT1=
EXTT2=
EXTT3=
EXTT4=
EXTT5=
EXTT6=
EXTT7=
EXTT8=
EXTT9=
EXTT10=
PLAYORDER=
